<?xml version="1.0" encoding="UTF-8"?>
<svg version="1.1" xmlns="http://www.w3.org/2000/svg" width="512" height="512">
<path d="M0 0 C3.78821488 1.77984691 6.59613908 4.15111351 9.625 7 C10.17768555 7.51618896 10.73037109 8.03237793 11.29980469 8.56420898 C22.83860995 19.42954926 34.37623376 30.36998852 44 43 C44.76957031 43.96421875 45.53914063 44.9284375 46.33203125 45.921875 C90 100.88448139 90 100.88448139 90 125 C90.91136719 124.52691406 91.82273437 124.05382812 92.76171875 123.56640625 C128.40128333 105.27817542 165.43290992 94.74842629 205 89 C205.91168945 88.86577637 206.82337891 88.73155273 207.76269531 88.59326172 C224.06930852 86.29559981 240.57365506 86.80102266 257 87 C257.64148985 139.36202062 257.64148985 139.36202062 254 161 C253.69400879 162.84537354 253.69400879 162.84537354 253.38183594 164.72802734 C250.41644293 182.14269707 246.58418821 199.22185895 241 216 C240.51539307 217.46179688 240.51539307 217.46179688 240.02099609 218.953125 C224.79719082 263.96904074 197.9270098 301.44379412 157 326 C206.5 326.495 206.5 326.495 257 327 C257 367.69438976 257 367.69438976 249.25 382.3125 C248.90638428 382.97781738 248.56276855 383.64313477 248.20874023 384.32861328 C245.11687297 390.12929707 241.37993829 395.10083385 237 400 C236.33613281 400.80566406 235.67226563 401.61132812 234.98828125 402.44140625 C211.36992476 430.33813415 173.52888608 444.03010606 138.0625 447.75 C136.04317849 447.86424733 134.02173552 447.94257793 132 448 C131.2579834 448.02578125 130.5159668 448.0515625 129.75146484 448.078125 C86.40332119 449.42147247 42.6092064 437.90942882 10.171875 408.0546875 C7.73180936 405.74628008 5.33581608 403.41367662 3 401 C-0.87284974 402.5652395 -3.10937833 405.03874886 -5.9375 408.0625 C-11.68470318 413.98162391 -17.99133248 418.6411636 -25 423 C-25.59377441 423.37366699 -26.18754883 423.74733398 -26.79931641 424.13232422 C-47.30192669 436.85490192 -71.09138161 444.22518059 -95 447 C-95.86238281 447.11085938 -96.72476563 447.22171875 -97.61328125 447.3359375 C-139.67985396 451.84089608 -186.69593027 442.90585342 -220.5625 416.4375 C-239.51311526 401.06181765 -248.6536664 384.798751 -255 361 C-255 349.78 -255 338.56 -255 327 C-222 326.67 -189 326.34 -155 326 C-159.62 323.03 -164.24 320.06 -169 317 C-219.47558774 278.54240934 -241.85881003 222.15954614 -252 161 C-252.18079102 159.92572754 -252.36158203 158.85145508 -252.54785156 157.74462891 C-256.28737605 134.38189394 -255.28886441 110.57874248 -255 87 C-196.58933753 85.88463776 -142.32086496 97.79780628 -90 124 C-89.34 124.33 -88.68 124.66 -88 125 C-87.814375 124.23042969 -87.814375 124.23042969 -87.625 123.4453125 C-76.64956569 82.69901264 -46.89967907 45.74854363 -17.625 16.4375 C-16.91346771 15.72433624 -16.91346771 15.72433624 -16.18756104 14.99676514 C-10.96262991 9.77319131 -5.69225779 4.71218585 0 0 Z M-1.890625 59.73828125 C-19.25866768 78.68785099 -33.31325401 100.64662334 -44 124 C-44.30776367 124.67063477 -44.61552734 125.34126953 -44.93261719 126.03222656 C-53.70651626 145.45949108 -58.40543048 165.65367715 -58.375 187 C-58.37368576 188.01812775 -58.37368576 188.01812775 -58.37234497 189.05682373 C-58.3227592 200.75872235 -57.22482078 211.7213359 -54 223 C-53.7745752 223.81484863 -53.54915039 224.62969727 -53.31689453 225.46923828 C-47.30923755 246.6408251 -37.43477666 266.86698569 -25 285 C-24.58508301 285.60875977 -24.17016602 286.21751953 -23.74267578 286.84472656 C-16.47599938 297.43323235 -8.40794825 307.29852125 0 317 C4.00675922 315.45109077 6.33190935 312.66416319 9 309.4375 C9.47348877 308.8703125 9.94697754 308.303125 10.43481445 307.71875 C43.07514 267.95388639 64.19307163 220.9268067 59.73193359 168.87207031 C57.34989947 149.75515145 50.2739538 130.82539565 41.07714844 113.97753906 C39.92829697 111.86836026 38.81196562 109.74357025 37.6953125 107.6171875 C29.70309785 92.60856123 20.05022017 78.91309253 9 66 C8.32710938 65.19304687 7.65421875 64.38609375 6.9609375 63.5546875 C4.57144648 60.69219375 4.57144648 60.69219375 2 58 C-0.18266634 57.77439138 -0.18266634 57.77439138 -1.890625 59.73828125 Z M-214 130 C-209.90432859 175.87928936 -199.52559472 224.90301606 -169 261 C-168.15953125 262.00417969 -167.3190625 263.00835937 -166.453125 264.04296875 C-139.22268875 295.63108932 -93.9030065 313.77541771 -53 317 C-55.55460593 312.42350217 -58.25983145 307.99493745 -61.10986328 303.59716797 C-76.8278115 279.24777155 -88.51623413 253.32411175 -95 225 C-95.26466064 223.9186377 -95.26466064 223.9186377 -95.53466797 222.81542969 C-97.62134091 214.03444525 -98.06941918 205.60334758 -97.7890625 196.609375 C-97.76810516 195.7652002 -97.74714783 194.92102539 -97.72555542 194.05126953 C-97.61761405 189.74701217 -97.45333704 185.45953233 -97.18701172 181.16210938 C-96.59674784 172.72530991 -96.59674784 172.72530991 -100.21850586 165.45825195 C-103.07314722 163.61953213 -105.86122931 162.28397041 -109 161 C-110.30522101 160.25411566 -111.60023439 159.48975251 -112.87890625 158.69921875 C-141.92775431 142.52870641 -180.39541825 129.05560894 -214 130 Z M194.875 132.125 C193.63596924 132.35018311 192.39693848 132.57536621 191.12036133 132.80737305 C168.02341383 137.14037169 145.23919059 143.94300659 123.9375 153.9375 C123.14206787 154.3077832 122.34663574 154.67806641 121.52709961 155.05957031 C119.91674373 155.84297774 118.32453032 156.6646033 116.75097656 157.51953125 C115.25925158 158.3223197 113.75698228 159.11012286 112.21398926 159.80932617 C107.66911411 161.87248113 103.15599623 164.01692363 100 168 C98.15025927 172.98736252 98.75246058 178.39922648 99.17373657 183.60583496 C99.51392417 187.86387981 99.6166972 192.1298928 99.75390625 196.3984375 C99.78717514 197.23556274 99.82044403 198.07268799 99.85472107 198.93518066 C100.21965389 209.27568927 98.46775024 218.99314097 96 229 C95.81808105 229.78101074 95.63616211 230.56202148 95.44873047 231.36669922 C88.7484996 259.77831268 75.06743113 286.64793306 58.59375 310.58203125 C57.21080459 312.68017637 56.09735799 314.74666701 55 317 C97.56816197 313.92807079 142.40848013 294.1912809 170.703125 261.828125 C200.35091867 225.32301851 213.22585462 176.2038696 216 130 C208.76289466 129.69771304 201.98398147 130.82986103 194.875 132.125 Z M-208 368 C-197.38955928 386.56827125 -177.67034904 396.63204751 -157.5703125 402.31640625 C-122.17672114 411.50760893 -81.71867266 408.56064968 -49.6875 390.08984375 C-41.17900526 384.6309498 -32.99670587 378.21821282 -27 370 C-27 369.34 -27 368.68 -27 368 C-86.73 368 -146.46 368 -208 368 Z M30 368 C41.21007625 386.68346042 65.04737128 397.62803031 85.49609375 402.96875 C119.09432905 411.01266357 153.68902673 407.85811412 184 391 C184.98613281 390.46761719 185.97226562 389.93523437 186.98828125 389.38671875 C194.62243069 384.93438557 206.11097881 376.66706356 209 368 C149.93 368 90.86 368 30 368 Z " fill="#11C1D3" transform="translate(255,32)"/>
</svg>
